<mxfile host="app.diagrams.net" agent="Mozilla/5.0 (Windows NT 10.0; Win64; x64) AppleWebKit/537.36 (KHTML, like Gecko) Chrome/128.0.0.0 Safari/537.36" version="24.7.12">
  <diagram name="Page-1" id="aVJKDRFR9pVD4KGos5lU">
    <mxGraphModel dx="2554" dy="930" grid="1" gridSize="10" guides="1" tooltips="1" connect="1" arrows="1" fold="1" page="1" pageScale="1" pageWidth="850" pageHeight="1100" math="0" shadow="0">
      <root>
        <mxCell id="0" />
        <mxCell id="1" parent="0" />
        <mxCell id="fNeiMO4bUtMPr8ZshyVa-2" value="Browser" style="verticalLabelPosition=bottom;html=1;verticalAlign=top;align=center;strokeColor=none;fillColor=#00BEF2;shape=mxgraph.azure.computer;pointerEvents=1;" vertex="1" parent="1">
          <mxGeometry x="-410" y="80" width="80" height="80" as="geometry" />
        </mxCell>
        <mxCell id="fNeiMO4bUtMPr8ZshyVa-3" value="Mobile&lt;div&gt;&lt;br&gt;&lt;/div&gt;" style="html=1;verticalLabelPosition=bottom;align=center;labelBackgroundColor=#ffffff;verticalAlign=top;strokeWidth=2;strokeColor=#0080F0;shadow=0;dashed=0;shape=mxgraph.ios7.icons.smartphone;" vertex="1" parent="1">
          <mxGeometry x="-395" y="290" width="50" height="85" as="geometry" />
        </mxCell>
        <mxCell id="fNeiMO4bUtMPr8ZshyVa-7" style="edgeStyle=orthogonalEdgeStyle;rounded=0;orthogonalLoop=1;jettySize=auto;html=1;entryX=0;entryY=0.311;entryDx=0;entryDy=0;entryPerimeter=0;" edge="1" parent="1" source="fNeiMO4bUtMPr8ZshyVa-2">
          <mxGeometry relative="1" as="geometry">
            <mxPoint x="-210" y="120.13999999999987" as="targetPoint" />
          </mxGeometry>
        </mxCell>
        <mxCell id="fNeiMO4bUtMPr8ZshyVa-8" style="edgeStyle=orthogonalEdgeStyle;rounded=0;orthogonalLoop=1;jettySize=auto;html=1;entryX=-0.001;entryY=0.599;entryDx=0;entryDy=0;entryPerimeter=0;" edge="1" parent="1" source="fNeiMO4bUtMPr8ZshyVa-3">
          <mxGeometry relative="1" as="geometry">
            <mxPoint x="-211.13999999999987" y="333.26" as="targetPoint" />
          </mxGeometry>
        </mxCell>
        <mxCell id="fNeiMO4bUtMPr8ZshyVa-20" value="&lt;font style=&quot;font-size: 22px;&quot;&gt;OMDb API&lt;/font&gt;" style="ellipse;shape=cloud;whiteSpace=wrap;html=1;" vertex="1" parent="1">
          <mxGeometry x="950" y="220" width="270" height="220" as="geometry" />
        </mxCell>
        <mxCell id="fNeiMO4bUtMPr8ZshyVa-21" value="&lt;font style=&quot;font-size: 22px;&quot;&gt;Persistent Volume&lt;/font&gt;" style="shape=cube;whiteSpace=wrap;html=1;boundedLbl=1;backgroundOutline=1;darkOpacity=0.05;darkOpacity2=0.1;" vertex="1" parent="1">
          <mxGeometry x="970" y="540" width="260" height="240" as="geometry" />
        </mxCell>
        <mxCell id="fNeiMO4bUtMPr8ZshyVa-23" value="Entity" style="rounded=1;arcSize=10;whiteSpace=wrap;html=1;align=center;container=1;" vertex="1" parent="1">
          <mxGeometry x="290" y="170" width="240" height="250" as="geometry" />
        </mxCell>
        <mxCell id="fNeiMO4bUtMPr8ZshyVa-19" value="&lt;font style=&quot;font-size: 22px;&quot;&gt;Python Flask Backend&lt;/font&gt;" style="rounded=1;whiteSpace=wrap;html=1;container=1;" vertex="1" parent="fNeiMO4bUtMPr8ZshyVa-23">
          <mxGeometry x="39.99999999999999" y="36.58536585365854" width="159.99999999999997" height="164.6341463414634" as="geometry" />
        </mxCell>
        <mxCell id="fNeiMO4bUtMPr8ZshyVa-24" value="Entity" style="rounded=1;arcSize=10;whiteSpace=wrap;html=1;align=center;container=1;" vertex="1" parent="1">
          <mxGeometry x="-30" y="170" width="250" height="250" as="geometry" />
        </mxCell>
        <mxCell id="fNeiMO4bUtMPr8ZshyVa-16" value="&lt;font style=&quot;font-size: 22px;&quot;&gt;React.js Frontend&lt;/font&gt;" style="rounded=1;whiteSpace=wrap;html=1;" vertex="1" parent="fNeiMO4bUtMPr8ZshyVa-24">
          <mxGeometry x="39.63414634146341" y="42.6829268292683" width="170.7317073170732" height="164.6341463414634" as="geometry" />
        </mxCell>
        <mxCell id="fNeiMO4bUtMPr8ZshyVa-27" value="Entity" style="rounded=1;arcSize=10;whiteSpace=wrap;html=1;align=center;container=1;" vertex="1" parent="1">
          <mxGeometry x="295" y="470" width="230" height="250" as="geometry" />
        </mxCell>
        <mxCell id="fNeiMO4bUtMPr8ZshyVa-17" value="&lt;font style=&quot;font-size: 22px;&quot;&gt;PostgreSQL Database&lt;/font&gt;" style="shape=cylinder3;whiteSpace=wrap;html=1;boundedLbl=1;backgroundOutline=1;size=15;" vertex="1" parent="fNeiMO4bUtMPr8ZshyVa-27">
          <mxGeometry x="53.292682926829265" y="39.63414634146341" width="123.41463414634147" height="170.7317073170732" as="geometry" />
        </mxCell>
        <mxCell id="fNeiMO4bUtMPr8ZshyVa-28" value="Ingress Controller" style="triangle;whiteSpace=wrap;html=1;rotation=-90;" vertex="1" parent="1">
          <mxGeometry x="-140" y="510" width="110" height="130" as="geometry" />
        </mxCell>
      </root>
    </mxGraphModel>
  </diagram>
</mxfile>
